{"title":"Wrecked (2009) DVD RIP Gay Intrest","uid":9993582,"size":829468336,"categoryP":"video","categoryS":"movies","magnet":"?xt=urn:btih:b429ed46b9a04897a3caad96fb6421dc3ce69d43&amp;dn=Wrecked+%282009%29+DVD+RIP+Gay+Intrest&amp;tr=udp%3A%2F%2Ftracker.openbittorrent.com%3A80&amp;tr=udp%3A%2F%2Fopen.demonii.com%3A1337&amp;tr=udp%3A%2F%2Ftracker.coppersurfer.tk%3A6969&amp;tr=udp%3A%2F%2Fexodus.desync.com%3A6969","seeders":9,"leechers":2,"uploader":"jmanwf","files":-1,"time":1397881292,"description":"Storyline\n\nAn edgy drama about a gay teen's tumultuous decent into drugs and anonymous sex, Wrecked smashes cinematic taboos while it spins its cautionary tale. Ryan is an earnest 18-year-old trying to develop a career as an actor and getting his life on the right track. This course is quickly threatened with the sudden arrival of his sort-of ex, Daniel, who arrives at Ryan's door wanting a place to stay and offering the promise of a normal, loving relationship. But Daniel's drug addiction and attitude towards casual sex derail any hope for normalcy and soon ensnares Ryan in his own downward spiral. Handheld cameras, a hot young cast and a boldly upfront approach to sex combine to make Wrecked a unique film experience\n\n\n\nFormat                                   : MPEG-4\nFormat profile                           : Base Media / Version 2\nCodec ID                                 : mp42\nFile size                                : 777 MiB\nDuration                                 : 1h 13mn\nOverall bit rate mode                    : Variable\nOverall bit rate                         : 1 476 Kbps\nEncoded date                             : UTC 2014-04-18 02:55:29\nTagged date                              : UTC 2014-04-18 04:00:49\nWriting application                      : HandBrake 0.9.9 2013052900\n\nVideo\nID                                       : 1\nFormat                                   : AVC\nFormat/Info                              : Advanced Video Codec\nFormat profile                           : &lt;a class=&quot;__cf_email__&quot; href=&quot;/cdn-cgi/l/email-protection&quot; data-cfemail=&quot;0c416d65624c4038223c&quot;&gt;[email&amp;#160;protected]&lt;/a&gt;&lt;script cf-hash='f9e31' type=&quot;text/javascript&quot;&gt;\n/* &lt;![CDATA[ */!function(){try{var t=&quot;currentScript&quot;in document?document.currentScript:function(){for(var t=document.getElementsByTagName(&quot;script&quot;),e=t.length;e--;)if(t[e].getAttribute(&quot;cf-hash&quot;))return t[e]}();if(t&amp;&amp;t.previousSibling){var e,r,n,i,c=t.previousSibling,a=c.getAttribute(&quot;data-cfemail&quot;);if(a){for(e=&quot;&quot;,r=parseInt(a.substr(0,2),16),n=2;a.length-n;n+=2)i=parseInt(a.substr(n,2),16)^r,e+=String.fromCharCode(i);e=document.createTextNode(e),c.parentNode.replaceChild(e,c)}}}catch(u){}}();/* ]]&gt; */&lt;/script&gt;\nFormat settings, CABAC                   : Yes\nFormat settings, ReFrames                : 4 frames\nCodec ID                                 : avc1\nCodec ID/Info                            : Advanced Video Coding\nDuration                                 : 1h 13mn\nBit rate                                 : 1 150 Kbps\nWidth                                    : 720 pixels\nHeight                                   : 480 pixels\nDisplay aspect ratio                     : 4:3\nOriginal display aspect ratio            : 4:3\nFrame rate mode                          : Constant\nFrame rate                               : 29.970 fps\nStandard                                 : NTSC\nColor space                              : YUV\nChroma subsampling                       : 4:2:0\nBit depth                                : 8 bits\nScan type                                : Progressive\nBits/(Pixel*Frame)                       : 0.111\nStream size                              : 605 MiB (78%)\nWriting library                          : x264 core 130 r2273 b3065e6\ncrf_max=0.0 / nal_hrd=none / ip_ratio=1.40 / aq=1:1.00\nEncoded date                             : UTC 2014-04-18 02:55:29\nTagged date                              : UTC 2014-04-18 04:00:49\nColor primaries                          : BT.601 NTSC\nTransfer characteristics                 : BT.709\nMatrix coefficients                      : BT.601\n\nAudio #1\nID                                       : 2\nFormat                                   : AAC\nFormat/Info                              : Advanced Audio Codec\nFormat profile                           : LC\nCodec ID                                 : 40\nDuration                                 : 1h 13mn\nBit rate mode                            : Variable\nBit rate                                 : 160 Kbps\nMaximum bit rate                         : 398 Kbps\nChannel(s)                               : 2 channels\nChannel positions                        : Front: L R\nSampling rate                            : 48.0 KHz\nCompression mode                         : Lossy\nStream size                              : 84.1 MiB (11%)\nLanguage                                 : English\nEncoded date                             : UTC 2014-04-18 02:55:29\nTagged date                              : UTC 2014-04-18 04:00:48\n\n &lt;a href=&quot;\nhttp://www.imdb.com/title/tt1555219/&quot; rel=&quot;nofollow&quot; target=&quot;_NEW&quot;&gt;\nhttp://www.imdb.com/title/tt1555219/&lt;/a&gt;\n\n\n\n\nInc.Directories Commentary\n","torrent":{"xt":"urn:btih:b429ed46b9a04897a3caad96fb6421dc3ce69d43","amp;dn":"Wrecked+%282009%29+DVD+RIP+Gay+Intrest","amp;tr":["udp%3A%2F%2Ftracker.openbittorrent.com%3A80","udp%3A%2F%2Fopen.demonii.com%3A1337","udp%3A%2F%2Ftracker.coppersurfer.tk%3A6969","udp%3A%2F%2Fexodus.desync.com%3A6969"],"infoHash":"b429ed46b9a04897a3caad96fb6421dc3ce69d43","infoHashBuffer":{"type":"Buffer","data":[180,41,237,70,185,160,72,151,163,202,173,150,251,100,33,220,60,230,157,67]},"announce":[],"urlList":[]}}